<svg width="127" height="127" viewBox="0 0 127 127" fill="white" xmlns="http://www.w3.org/2000/svg">
<path d="M51.0667 90.4875C49.638 90.6399 47.2186 90.8304 44.2087 90.8304C36.4998 90.8304 24.9301 89.554 16.256 83.0516C8.6614 86.8997 2.6543 93.237 0 96.3422C3.9624 100.965 15.3861 112.808 28.3845 112.808C41.4274 112.808 52.8193 100.971 56.769 96.3422C55.5371 94.9007 53.575 92.7544 51.0667 90.4875Z" fill="#EDEEF0"/>
<path d="M110.687 83.0262C102.013 89.554 90.4176 90.8367 82.696 90.8367C79.7433 90.8367 77.3557 90.6526 75.9206 90.5002C73.4187 92.7671 71.4629 94.9071 70.2246 96.3422C74.187 100.965 85.6107 112.808 98.6091 112.808C111.652 112.808 123.044 100.971 127 96.3422C124.339 93.237 118.307 86.868 110.687 83.0262Z" fill="#EDEEF0"/>
<path d="M49.2189 84.5185C49.2316 84.3407 49.2443 84.1502 49.257 83.9533C42.4434 75.9841 35.3886 64.643 35.3886 51.8477C35.3886 50.8508 35.433 49.8602 35.5156 48.8759C26.2636 43.7197 14.1097 43.9864 9.06782 44.3738C8.59792 50.4507 8.29947 66.8972 17.4943 76.092C26.6954 85.2805 43.1419 84.982 49.2189 84.5185Z" fill="#EDEEF0"/>
<path d="M77.6605 84.163C77.6669 84.2836 77.6796 84.4043 77.6859 84.5186C83.7565 84.9885 100.209 85.2869 109.398 76.0921C118.618 66.8719 118.307 50.4445 117.831 44.3802C112.833 43.9929 100.8 43.7262 91.567 48.7744C91.6559 49.7904 91.7067 50.8128 91.7067 51.8478C91.7067 64.7574 84.5312 76.1874 77.6605 84.163Z" fill="#EDEEF0"/>
<path d="M63.5508 14.1923C57.9755 18.8786 41.4973 34.2075 41.4973 51.8478C41.4973 69.4881 57.9755 84.817 63.5508 89.5033C69.1261 84.8233 85.6107 69.4881 85.6107 51.8478C85.6043 34.2075 69.1261 18.8786 63.5508 14.1923Z" fill="#EDEEF0"/>
</svg>
