<svg width="127" height="127" viewBox="0 0 127 127" fill="none" xmlns="http://www.w3.org/2000/svg">
<g clip-path="url(#clip0)">
<path d="M51.2064 92.8625C51.2001 92.8689 51.1874 92.8816 51.1747 92.888L52.3621 99.657L59.1312 100.844C59.1439 100.838 59.1502 100.825 59.1566 100.813L57.8675 94.1516L51.2064 92.8625Z" fill="#EDEEF0"/>
<path d="M111.138 40.8814C84.8741 14.6178 69.7992 28.1115 67.3608 37.2746C66.1988 41.6497 66.3067 43.4722 66.3067 43.4722C62.3634 41.5291 52.2859 38.7986 43.6309 70.5549L25.019 93.4657C29.191 100.667 33.9725 106.959 39.5161 112.503C45.0596 118.04 51.3525 122.828 58.5534 127L81.4705 108.388C88.9064 104.934 100.997 103.562 108.725 95.8343C124.562 79.991 134.912 64.6558 111.138 40.8814ZM74.0156 97.2694C72.4535 98.8315 69.9199 98.8315 68.3578 97.2694C67.9895 96.9011 67.7101 96.4756 67.5132 96.0248L62.6301 95.0786L63.5762 99.9618C64.0271 100.159 64.4525 100.438 64.8208 100.806C66.3829 102.368 66.3829 104.902 64.8208 106.464C63.2587 108.026 60.7251 108.026 59.1693 106.464C58.8201 106.115 58.547 105.709 58.3565 105.283L53.194 104.381L54.102 109.544C54.5338 109.734 54.9339 110.001 55.2831 110.357C56.8452 111.919 56.8452 114.452 55.2831 116.015C53.721 117.577 51.1874 117.577 49.6316 116.015C48.0695 114.452 48.0695 111.919 49.6316 110.357C49.6443 110.344 49.657 110.331 49.6697 110.319L48.4823 103.55L41.7132 102.362C41.7005 102.375 41.6878 102.387 41.6751 102.407C40.113 103.969 37.5793 103.969 36.0172 102.407C34.4551 100.844 34.4551 98.3108 36.0172 96.755C37.5793 95.1929 40.113 95.1929 41.6751 96.755C42.0243 97.1043 42.2974 97.5107 42.4879 97.9361L47.6504 98.8442L46.7424 93.6816C46.3169 93.4911 45.9105 93.2181 45.5613 92.8688C43.9992 91.3067 43.9992 88.7731 45.5613 87.211C47.1234 85.6489 49.657 85.6489 51.2128 87.211C51.5811 87.5793 51.8605 88.0047 52.0573 88.4619L56.9405 89.4081L55.9943 84.5249C55.5435 84.3281 55.118 84.0487 54.7434 83.6804C53.1813 82.1183 53.1813 79.5846 54.7434 78.0225C56.3055 76.4604 58.8391 76.4604 60.3949 78.0225C61.9506 79.5783 61.957 82.1056 60.4076 83.6677L61.6966 90.3288L68.3578 91.6179C69.9199 90.0621 72.4472 90.0685 74.0029 91.6242C75.5777 93.1736 75.5777 95.7073 74.0156 97.2694Z" fill="#EDEEF0"/>
<path d="M33.1471 77.0445L31.4516 74.8601L24.9238 76.7143C24.9175 76.727 24.9175 76.7397 24.9111 76.7524L28.9688 82.1753L33.1471 77.0445Z" fill="#EDEEF0"/>
<path d="M18.18 84.4867C18.6563 84.6391 19.0754 84.8804 19.4437 85.1725L24.4602 83.6485L21.3169 79.4512C20.847 79.4702 20.3708 79.4131 19.8945 79.2607C17.799 78.5749 16.6497 76.3143 17.3418 74.2188C18.0276 72.1169 20.2882 70.9739 22.3837 71.6661C22.879 71.8312 23.3235 72.0852 23.6982 72.3963L28.4861 71.0311L25.4381 67.1004C24.9491 67.1322 24.4411 67.075 23.9458 66.9099C21.8503 66.2241 20.701 63.9635 21.3931 61.868C22.0789 59.7725 24.3395 58.6295 26.435 59.3153C28.5305 60.0011 29.6735 62.249 28.9941 64.3445L33.1533 69.7039L39.6811 67.8434C39.8843 67.2338 40.2272 66.7004 40.6527 66.2749C44.3293 54.2036 48.2092 47.6123 48.2092 47.6123C48.2092 47.6123 44.2087 36.9189 32.0167 41.6814C46.4502 34.8424 35.9664 23.9014 35.9664 23.9014C35.9664 23.9014 48.3806 33.3502 60.3758 38.5064C60.9663 38.4175 61.5632 38.3667 62.1728 38.3667C62.4332 38.3667 62.6872 38.373 62.9412 38.3921C63.0872 37.738 63.2587 37.0205 63.4682 36.2331C65.1383 29.9402 70.8596 23.2219 79.7814 21.7868C76.8159 15.132 69.7293 8.12163 54.9275 3.27023C22.9743 -7.20092 13.9763 8.96618 6.99768 30.2577C3.59408 40.6463 7.83588 52.0446 8.11528 60.2424L1.84148 89.0968C8.81378 93.6307 15.9258 97.0851 23.3743 99.5299C23.6283 99.6124 23.876 99.6886 24.13 99.7712C23.241 98.3869 22.371 96.9645 21.5201 95.4976L20.1231 93.0846L23.8061 88.5507L20.7518 89.4778C20.7454 89.4969 20.7454 89.5159 20.7391 89.5286C20.0533 91.6305 17.7927 92.7735 15.6908 92.0813C13.5953 91.3955 12.446 89.1349 13.1381 87.0394C13.8176 84.9439 16.0782 83.8009 18.18 84.4867Z" fill="#EDEEF0"/>
</g>
<defs>
<clipPath id="clip0">
<rect width="127" height="127" fill="white"/>
</clipPath>
</defs>
</svg>
