<svg width="127" height="127" viewBox="0 0 127 127" fill="none" xmlns="http://www.w3.org/2000/svg">
<path d="M122.853 59.3027H120.504V49.2252C120.504 46.9328 118.65 45.0786 116.357 45.0786H109.588V44.5008C109.588 42.2084 107.734 40.3542 105.442 40.3542H93.4212C91.1289 40.3542 89.2747 42.2084 89.2747 44.5008V59.3027H37.7253V44.6024C37.7253 42.31 35.8712 40.4558 33.5788 40.4558H21.5583C19.2659 40.4558 17.4117 42.31 17.4117 44.6024V45.0786H10.6426C8.35025 45.0786 6.49605 46.9328 6.49605 49.2252V59.3027H4.14655C1.8542 59.3027 0 61.1568 0 63.4492C0 65.7416 1.8542 67.5957 4.14655 67.5957H6.49605V77.6732C6.49605 79.9655 8.35025 81.8197 10.6426 81.8197H17.4117V82.5056C17.4117 84.7979 19.2659 86.6521 21.5583 86.6521H33.5788C35.8712 86.6521 37.7253 84.7979 37.7253 82.5056V67.5957H89.2747V82.3976C89.2747 84.6899 91.1289 86.5442 93.4212 86.5442H105.442C107.734 86.5442 109.588 84.6899 109.588 82.3976V81.8197H116.357C118.65 81.8197 120.504 79.9655 120.504 77.6732V67.5957H122.853C125.146 67.5957 127 65.7416 127 63.4492C127 61.1568 125.146 59.3027 122.853 59.3027Z" fill="white"/>
</svg>
