<svg width="127" height="127" viewBox="0 0 127 127" fill="none" xmlns="http://www.w3.org/2000/svg">
<path d="M94.4182 69.9325C94.8817 70.3326 95.4469 70.5294 96.012 70.5294C96.6915 70.5294 97.3709 70.2437 97.8535 69.6912C98.2282 69.2531 107.029 58.9217 100.355 50.527C96.6534 45.8724 99.3839 43.161 99.9871 42.6593C101.029 41.8211 101.194 40.2971 100.355 39.2494C99.5172 38.1953 97.9742 38.0238 96.9264 38.862C94.3674 40.9004 90.9955 46.59 96.5327 53.5623C100.686 58.7883 94.2213 66.4273 94.1642 66.5035C93.2879 67.5132 93.3958 69.0562 94.4182 69.9325Z" fill="white"/>
<path d="M115.5 66.4972C114.618 67.5132 114.732 69.0562 115.748 69.9325C116.211 70.3326 116.777 70.5294 117.342 70.5294C118.021 70.5294 118.707 70.2437 119.183 69.6912C119.558 69.2531 128.359 58.9217 121.691 50.527C117.989 45.8724 120.72 43.161 121.317 42.6593C122.358 41.8211 122.523 40.2971 121.691 39.2494C120.853 38.1953 119.31 38.0238 118.262 38.862C115.703 40.9004 112.332 46.59 117.869 53.5623C122.028 58.782 115.564 66.421 115.5 66.4972Z" fill="white"/>
<path d="M28.1432 38.862C27.0891 38.0238 25.5524 38.1953 24.7142 39.2494C23.8823 40.2971 24.0474 41.8148 25.0825 42.6593C25.6794 43.161 28.4099 45.8724 24.7142 50.527C18.0467 58.9217 26.8351 69.2594 27.2161 69.6912C27.6987 70.25 28.3781 70.5358 29.0576 70.5358C29.6227 70.5358 30.1879 70.3326 30.6514 69.9389C31.6738 69.0562 31.7817 67.5132 30.8991 66.4972C30.8356 66.421 24.3713 58.782 28.5242 53.5623C34.0677 46.5836 30.6959 40.894 28.1432 38.862Z" fill="white"/>
<path d="M5.88642 69.6912C6.36902 70.25 7.04847 70.5294 7.72792 70.5294C8.29307 70.5294 8.85822 70.3326 9.32177 69.9325C10.3441 69.0499 10.4521 67.5132 9.56942 66.4972C9.50592 66.421 3.04162 58.782 7.19452 53.5623C12.7317 46.59 9.35987 40.9004 6.80717 38.862C5.75307 38.0238 4.21637 38.1953 3.37817 39.2494C2.54632 40.2971 2.71142 41.8148 3.74647 42.6593C4.34337 43.161 7.07387 45.8724 3.37817 50.527C-3.28933 58.9217 5.50542 69.2531 5.88642 69.6912Z" fill="white"/>
<path d="M63.3539 41.2877C70.2487 41.2877 75.838 35.6983 75.838 28.8036C75.838 21.9088 70.2487 16.3195 63.3539 16.3195C56.4592 16.3195 50.8698 21.9088 50.8698 28.8036C50.8698 35.6983 56.4592 41.2877 63.3539 41.2877Z" fill="white"/>
<path d="M7.3152 99.2124H44.1452C46.8376 99.2124 49.022 97.028 49.022 94.3356V88.3603V85.1154C49.022 85.0392 49.041 84.9757 49.041 84.8995C49.0284 80.8736 52.305 77.597 56.3372 77.597C59.6773 77.597 62.4776 79.8703 63.3476 82.9374C64.2112 79.8703 67.0116 77.597 70.358 77.597C74.3839 77.597 77.6605 80.8736 77.6668 84.8995C77.6478 84.9757 77.6732 85.0392 77.6732 85.1154V88.3603V94.3356C77.6732 97.028 79.8512 99.2124 82.55 99.2124H119.685C123.73 99.2124 127 96.012 127 92.056C127 88.1063 123.73 84.8995 119.685 84.8995H91.8147C92.945 83.5025 93.2688 81.5404 92.4623 79.8005L79.3559 51.4541C79.1337 50.9778 78.8289 50.5714 78.486 50.2031C77.1461 45.466 72.4027 43.2753 66.7067 43.2753H59.9758C54.4703 43.2753 49.8666 45.339 48.3616 49.7586C47.8155 50.2095 47.3456 50.7746 47.0281 51.4604L33.9217 79.8068C33.1153 81.5467 33.4391 83.5089 34.5694 84.9059H7.3152C3.2766 84.9059 0 88.1063 0 92.0623C0 96.012 3.2766 99.2124 7.3152 99.2124ZM78.9051 83.1152V73.7172L83.6105 83.8899C83.7819 84.2645 84.0232 84.5884 84.2645 84.8995H78.7464C78.8353 84.3217 78.9051 83.7248 78.9051 83.1152ZM42.78 83.8962L47.7901 73.0568V83.1152C47.7901 83.7248 47.86 84.3217 47.9488 84.9059H42.1195C42.3736 84.5947 42.6022 84.2709 42.78 83.8962Z" fill="white"/>
<path d="M51.4667 84.9312V105.804C51.4667 108.496 53.6511 110.68 56.3435 110.68C59.0359 110.68 61.2203 108.496 61.2203 105.804V84.9312C61.2203 82.2388 59.0359 80.0544 56.3435 80.0544C53.6448 80.0544 51.4667 82.2325 51.4667 84.9312Z" fill="white"/>
<path d="M65.4875 84.9312V105.804C65.4875 108.496 67.6719 110.68 70.3643 110.68C73.0567 110.68 75.2411 108.496 75.2411 105.804V84.9312C75.2411 82.2388 73.0567 80.0544 70.3643 80.0544C67.6656 80.0544 65.4875 82.2325 65.4875 84.9312Z" fill="white"/>
</svg>
