<svg width="127" height="127" viewBox="0 0 127 127" fill="none" xmlns="http://www.w3.org/2000/svg">
<path d="M50.3428 121.634C50.3428 125.209 52.089 127 55.5815 127C59.074 127 60.8203 125.209 60.8203 121.634V72.0598H66.186V121.634C66.186 125.209 67.9323 127 71.4248 127C74.9173 127 76.6635 125.209 76.6635 121.634V38.0746H79.2162V68.9927C79.2162 70.866 79.8576 72.2313 81.1339 73.0821C82.4103 73.9331 83.7311 73.9331 85.0963 73.0821C86.4616 72.2313 87.141 70.866 87.141 68.9927V37.0523C87.141 33.4772 85.9472 30.5372 83.566 28.2385C81.1847 25.9398 77.9462 24.7904 73.8568 24.7904H53.1495C49.2315 24.7904 46.0375 25.8953 43.5673 28.1115C41.0972 30.3276 39.8589 33.2232 39.8589 36.7983V69.2531C39.8589 70.9549 40.5384 72.1487 41.9036 72.8282C43.2689 73.5076 44.5897 73.5076 45.866 72.8282C47.1424 72.1487 47.7837 70.9549 47.7837 69.2531V38.0746H50.3364V121.634H50.3428Z" fill="#EDEEF0"/>
<path d="M52.3812 10.8585C52.3812 13.8367 53.448 16.3957 55.5752 18.523C57.7025 20.6502 60.2615 21.7234 63.246 21.7234C66.2242 21.7234 68.7388 20.6565 70.7835 18.5293C72.8282 16.4021 73.8505 13.843 73.8505 10.8585C73.8505 7.874 72.8282 5.3213 70.7835 3.19405C68.7388 1.0668 66.2242 0 63.246 0C60.2615 0 57.7088 1.0668 55.5816 3.19405C53.4543 5.3213 52.3812 7.88035 52.3812 10.8585Z" fill="#EDEEF0"/>
</svg>
