<svg width="127" height="127" viewBox="0 0 127 127" fill="none" xmlns="http://www.w3.org/2000/svg">
<g clip-path="url(#clip0)">
<path d="M123.292 74.8348L118.555 65.1454C118.044 64.1001 118.044 62.9008 118.555 61.8555L123.292 52.1656C125.929 46.7703 123.839 40.3397 118.535 37.5249L109.007 32.4702C107.98 31.9247 107.275 30.9546 107.074 29.8089L105.21 19.1856C104.173 13.2704 98.7009 9.29721 92.7564 10.1371L82.0773 11.6477C80.9254 11.8117 79.7851 11.4401 78.9487 10.631L71.197 3.13226C66.8807 -1.04385 60.119 -1.0436 55.8032 3.13202L48.0513 10.631C47.2149 11.4398 46.0748 11.8107 44.9227 11.6477L34.2435 10.1371C28.2993 9.29795 22.8272 13.2707 21.7896 19.1856L19.9263 29.8089C19.7254 30.9549 19.0204 31.925 17.9928 32.4702L8.46531 37.5254C3.16034 40.3397 1.07079 46.7706 3.70827 52.1661L8.44497 61.8555C8.95594 62.9008 8.95594 64.1001 8.44497 65.1454L3.70827 74.8353C1.07104 80.2305 3.16059 86.6611 8.46531 89.476L17.9925 94.5307C19.0204 95.0761 19.7254 96.0462 19.9263 97.192L21.7896 107.816C22.8272 113.731 28.2988 117.703 34.2435 116.864L44.9227 115.353C46.0753 115.19 47.2151 115.561 48.0513 116.37L55.803 123.869C57.9615 125.957 60.7302 127.001 63.4999 127.001C66.2691 127 69.0392 125.957 71.1967 123.869L78.9487 116.37C79.7851 115.561 80.9246 115.19 82.0773 115.353L92.7564 116.864C93.2902 116.939 93.8193 116.976 94.3427 116.976C99.6482 116.976 104.266 113.199 105.211 107.816L107.074 97.1925C107.275 96.0465 107.98 95.0764 109.007 94.5312L118.535 89.476C123.84 86.6611 125.929 80.2303 123.292 74.8348ZM50.0706 78.1497C50.0706 79.8483 48.9028 81.3237 47.2496 81.7141C46.9688 81.7803 46.6863 81.8123 46.4072 81.8126C45.0442 81.8126 43.7628 81.0486 43.1323 79.7875L35.421 64.3647V78.1499C35.421 80.1725 33.7812 81.8123 31.7586 81.8123C29.736 81.8123 28.0962 80.1725 28.0962 78.1499V48.8504C28.0962 47.1518 29.264 45.6764 30.9172 45.286C32.57 44.8953 34.275 45.6936 35.0346 47.2126L42.7458 62.6356V48.8504C42.7458 46.8279 44.3857 45.188 46.4082 45.188C48.4308 45.188 50.0706 46.8279 50.0706 48.8504V78.1497ZM68.3827 59.8377C70.4052 59.8377 72.0451 61.4775 72.0451 63.5001C72.0451 65.5226 70.4052 67.1625 68.3827 67.1625H59.837V74.4873H70.8242C72.8467 74.4873 74.4866 76.1271 74.4866 78.1497C74.4866 80.1722 72.8467 81.8121 70.8242 81.8121H56.1746C54.152 81.8121 52.5121 80.1722 52.5121 78.1497V48.8504C52.5121 46.8279 54.152 45.188 56.1746 45.188H70.8242C72.8467 45.188 74.4866 46.8279 74.4866 48.8504C74.4866 50.873 72.8467 52.5128 70.8242 52.5128H59.837V59.8377H68.3827ZM98.9028 78.1497C98.9028 79.8483 97.735 81.3237 96.0817 81.7141C95.801 81.7803 95.5184 81.8123 95.2394 81.8126C93.8764 81.8126 92.595 81.0486 91.9644 79.7875L87.9156 71.6896L83.8667 79.7875C83.1072 81.3073 81.4031 82.1045 79.7494 81.7141C78.0962 81.3237 76.9284 79.8483 76.9284 78.1497V48.8504C76.9284 46.8279 78.5682 45.188 80.5908 45.188C82.6133 45.188 84.2532 46.8279 84.2532 48.8504V62.6356L84.6396 61.8625C85.26 60.6217 86.5282 59.8379 87.9156 59.8379C89.3029 59.8379 90.5709 60.6217 91.1915 61.8625L91.578 62.6356V48.8504C91.578 46.8279 93.2178 45.188 95.2404 45.188C97.2629 45.188 98.9028 46.8279 98.9028 48.8504V78.1497Z" fill="#EDEEF0"/>
</g>
<defs>
<clipPath id="clip0">
<rect width="127" height="127" fill="white"/>
</clipPath>
</defs>
</svg>
