<svg width="127" height="127" viewBox="0 0 127 127" fill="none" xmlns="http://www.w3.org/2000/svg">
<path d="M116.091 0H10.9283C4.90311 0 0 4.90311 0 10.9188V116.081C0 122.106 4.90311 127 10.9283 127H116.091C122.106 127 127 122.097 127 116.081V10.9188C127 4.90311 122.106 0 116.091 0ZM117.646 116.081C117.646 116.939 116.949 117.637 116.091 117.637H10.9283C10.0702 117.637 9.36306 116.939 9.36306 116.081V10.9188C9.36306 10.0608 10.0702 9.36306 10.9283 9.36306H116.091C116.949 9.36306 117.646 10.0608 117.646 10.9188V116.081Z" fill="#EDEEF0"/>
<path d="M40.5166 41.421H72.9243V41.6473L43.7791 98.5045H61.2889L90.4247 38.2717V27.8337H40.5166V41.421Z" fill="#EDEEF0"/>
</svg>
