<svg width="127" height="127" viewBox="0 0 127 127" fill="none" xmlns="http://www.w3.org/2000/svg">
<g clip-path="url(#clip0)">
<path d="M46.6217 58.02C49.5536 58.02 51.9303 55.6433 51.9303 52.7114C51.9303 49.7796 49.5536 47.4028 46.6217 47.4028C43.6899 47.4028 41.3131 49.7796 41.3131 52.7114C41.3131 55.6433 43.6899 58.02 46.6217 58.02Z" fill="white"/>
<path d="M80.3529 79.572C83.2848 79.572 85.6615 77.1953 85.6615 74.2634C85.6615 71.3316 83.2848 68.9548 80.3529 68.9548C77.4211 68.9548 75.0443 71.3316 75.0443 74.2634C75.0443 77.1953 77.4211 79.572 80.3529 79.572Z" fill="white"/>
<path d="M124.123 70.5104L122.199 67.8815C120.117 65.0177 120.066 61.1442 122.123 58.2295L123.996 55.5752C126.86 51.5176 125.533 45.866 121.133 43.4975L118.269 41.9608C115.145 40.2971 113.43 36.8109 114.027 33.293L114.573 30.0926C115.405 25.2031 111.735 20.6692 106.769 20.466L103.518 20.339C99.9808 20.1803 96.9074 17.7863 95.9168 14.3827L95.0087 11.2585C93.6308 6.47061 88.373 4.00046 83.7946 5.97531L80.8038 7.25166C77.5526 8.65502 73.7489 7.82316 71.3804 5.16886L69.2214 2.74951C65.9194 -0.946193 60.1155 -0.920792 56.8325 2.85111L54.6989 5.29586C52.3558 7.97557 48.5839 8.85822 45.3073 7.50566L42.291 6.25471C37.6873 4.35606 32.4803 6.93416 31.1532 11.7221L30.2959 14.8717C29.3561 18.307 26.3399 20.7518 22.8029 20.9359L19.5517 21.1201C14.5797 21.4058 10.9919 25.9842 11.9 30.88L12.4969 34.0804C13.1446 37.5666 11.4809 41.0781 8.38205 42.799L5.5436 44.3865C1.1875 46.8058 -0.0634471 52.4764 2.8766 56.4896L4.80065 59.1185C6.88345 61.9824 6.93425 65.8559 4.87685 68.7705L3.0036 71.4248C0.139753 75.4825 1.4669 81.134 5.86745 83.5025L8.7313 85.0392C11.8555 86.7029 13.57 90.1891 12.9731 93.707L12.427 96.9074C11.5952 101.797 15.2655 106.331 20.2312 106.534L23.4823 106.661C27.0193 106.82 30.0927 109.214 31.0833 112.617L31.9913 115.742C33.3693 120.529 38.6271 123 43.2055 121.025L46.1963 119.748C49.4475 118.345 53.2511 119.177 55.6197 121.831L57.7787 124.251C61.1124 127.946 66.91 127.921 70.1675 124.149L72.3011 121.704C74.6443 119.024 78.4162 118.142 81.6928 119.494L84.709 120.745C89.3128 122.644 94.5198 120.066 95.8469 115.278L96.7042 112.128C97.644 108.693 100.66 106.248 104.197 106.064L107.448 105.88C112.42 105.594 116.008 101.016 115.1 96.12L114.503 92.9196C113.856 89.4334 115.519 85.9219 118.618 84.201L121.456 82.6135C125.813 80.2196 127.064 74.549 124.123 70.5104ZM33.7948 52.7113C33.7948 45.6311 39.5224 39.9097 46.5963 39.9097C53.6702 39.9097 59.3979 45.6374 59.3979 52.7113C59.3979 59.7853 53.6702 65.513 46.5963 65.513C39.5224 65.513 33.7948 59.7662 33.7948 52.7113ZM49.0728 85.7377C47.9806 87.0649 45.9994 87.249 44.6723 86.1568C43.3451 85.0646 43.161 83.0834 44.2532 81.7563L77.8511 41.2877C78.9433 39.9605 80.9245 39.7764 82.2516 40.8686C83.5788 41.9608 83.7629 43.942 82.6707 45.2691L49.0728 85.7377ZM80.353 87.0649C73.2727 87.0649 67.5514 81.3372 67.5514 74.2633C67.5514 67.183 73.2791 61.4617 80.353 61.4617C87.4332 61.4617 93.1545 67.1894 93.1545 74.2633C93.1545 81.3372 87.4268 87.0649 80.353 87.0649Z" fill="white"/>
</g>
<defs>
<clipPath id="clip0">
<rect width="127" height="127" fill="black"/>
</clipPath>
</defs>
</svg>
