<svg id="Capa_1" enable-background="new 0 0 512 512" height="512" viewBox="0 0 512 512" width="512" xmlns="http://www.w3.org/2000/svg"><g><path d="m510.869 42.997h-509.738c-.625 0-1.131.506-1.131 1.131v395.96c0 .625.506 1.131 1.131 1.131h509.738c.625 0 1.131-.506 1.131-1.131v-395.96c0-.625-.506-1.131-1.131-1.131z" fill="#8078bc"/><path d="m482.521 114.095c-22.742-.541-41.079-18.877-41.62-41.62-.014-.573-.471-1.034-1.045-1.034h-367.712c-.574 0-1.031.461-1.045 1.034-.541 22.742-18.878 41.078-41.62 41.62-.574.014-1.035.471-1.035 1.045v253.935c0 .574.461 1.031 1.035 1.045 22.742.541 41.079 18.878 41.62 41.62.014.573.471 1.034 1.045 1.034h269.19v-20.874c8.569 4.258 18.227 6.653 28.444 6.653 10.218 0 19.876-2.394 28.444-6.653v20.875h41.634c.574 0 1.031-.461 1.045-1.034.541-22.742 18.877-41.079 41.62-41.62.574-.014 1.035-.471 1.035-1.045v-253.936c0-.573-.461-1.031-1.035-1.045z" fill="#f1f4f6"/><path d="m355.556 272.138v-.52c0-.589-.477-1.066-1.066-1.066h-196.979c-.589 0-1.066.477-1.066 1.066v26.312c0 .589.477 1.066 1.066 1.066h193.681c8.952-13.373 5.89-18.119 4.364-26.858z" fill="#617881"/><path d="m65.815 392.171c3.219 5.825 5.115 12.483 5.284 19.569.014.573.471 1.034 1.045 1.034h290.683l-21.494-20.604h-275.518z" fill="#dfeaef"/><path d="m482.521 114.096c-22.742-.541-41.079-18.878-41.62-41.62-.014-.573-.471-1.034-1.045-1.034h-34.879c4.129 7.473 10.434 13.576 18.061 17.454 11.754 5.976 19.31 17.878 19.31 31.064v203.09c0 13.186-7.555 25.089-19.31 31.065-8.063 4.099-14.649 10.685-18.748 18.748-5.976 11.755-17.878 19.31-31.064 19.31h-31.34c8.43 4.088 56.336 20.604 56.336 20.604h41.634c.574 0 1.031-.461 1.045-1.034.541-22.742 18.877-41.079 41.62-41.62.574-.014 1.035-.471 1.035-1.045v-253.938c0-.573-.461-1.031-1.035-1.044z" fill="#dfeaef"/><path d="m341.333 391.9v76.032c0 .796.837 1.313 1.548.957l26.418-13.209c.301-.151.656-.151.957 0l26.418 13.209c.711.356 1.548-.161 1.548-.957v-76.032c-8.568 4.258-48.32 4.258-56.889 0z" fill="#da387d"/><path d="m408.944 156.774h-305.888c-1.933 0-3.5-1.567-3.5-3.5v-35.666c0-1.933 1.567-3.5 3.5-3.5h305.888c1.933 0 3.5 1.567 3.5 3.5v35.666c0 1.933-1.567 3.5-3.5 3.5z" fill="#f4dd45"/><path d="m211.201 242.108h-82.134c-.589 0-1.066-.477-1.066-1.066v-26.312c0-.589.477-1.066 1.066-1.066h82.134c.589 0 1.066.477 1.066 1.066v26.312c0 .588-.477 1.066-1.066 1.066z" fill="#617881"/><path d="m382.934 242.108h-141.156c-.589 0-1.066-.477-1.066-1.066v-26.312c0-.589.477-1.066 1.066-1.066h141.156c.589 0 1.066.477 1.066 1.066v26.312c0 .588-.477 1.066-1.066 1.066z" fill="#617881"/><g><path d="m369.778 434.723c-4.267 0-7.726-3.459-7.726-7.726v-47.474c0-4.268 3.459-7.726 7.726-7.726s7.726 3.459 7.726 7.726v47.474c0 4.267-3.459 7.726-7.726 7.726z" fill="#d80a61"/></g><g><path d="m213.334 349.057h-85.334c-4.267 0-7.726-3.459-7.726-7.726s3.459-7.726 7.726-7.726h85.333c4.267 0 7.726 3.459 7.726 7.726s-3.458 7.726-7.725 7.726z" fill="#617881"/></g><g><path d="m184.889 377.502h-56.889c-4.267 0-7.726-3.459-7.726-7.726s3.459-7.726 7.726-7.726h56.889c4.267 0 7.726 3.459 7.726 7.726s-3.459 7.726-7.726 7.726z" fill="#617881"/></g><circle cx="369.778" cy="334.552" fill="#f4dd45" r="64"/><circle cx="369.778" cy="334.552" fill="#e49542" r="35.556"/></g></svg>